<?xml version="1.0" encoding="UTF-8"?>
<svg xmlns="http://www.w3.org/2000/svg" xmlns:xlink="http://www.w3.org/1999/xlink" width="375pt" height="374.999991pt" viewBox="0 0 375 374.999991" version="1.2">
<defs>
<clipPath id="clip1">
  <path d="M 0 6.09375 L 375 6.09375 L 375 369.09375 L 0 369.09375 Z M 0 6.09375 "/>
</clipPath>
</defs>
<g id="surface1">
<path style=" stroke:none;fill-rule:nonzero;fill:rgb(96.469116%,96.859741%,98.81897%);fill-opacity:1;" d="M 135.9375 159.585938 C 96.453125 159.585938 64.238281 191.820312 64.238281 231.324219 C 64.238281 270.828125 96.453125 303.058594 135.9375 303.058594 C 175.417969 303.058594 207.632812 270.828125 207.632812 231.324219 C 207.632812 191.820312 175.617188 159.585938 135.9375 159.585938 Z M 135.9375 291.070312 C 102.933594 291.070312 76.21875 264.339844 76.21875 231.324219 C 76.21875 198.304688 103.132812 171.574219 135.9375 171.574219 C 168.742188 171.574219 195.652344 198.304688 195.652344 231.324219 C 195.652344 264.339844 168.9375 291.070312 135.9375 291.070312 Z M 135.9375 291.070312 "/>
<g clip-path="url(#clip1)" clip-rule="nonzero">
<path style=" stroke:none;fill-rule:nonzero;fill:rgb(96.469116%,96.859741%,98.81897%);fill-opacity:1;" d="M 371.261719 118.707031 L 361.636719 112.8125 C 362.03125 107.898438 362.03125 103.183594 361.636719 98.269531 L 371.261719 92.371094 C 373.425781 90.996094 374.40625 88.636719 374.011719 86.082031 C 372.441406 78.613281 370.085938 71.34375 366.941406 64.269531 C 365.960938 61.910156 363.601562 60.535156 361.050781 60.730469 L 349.851562 61.515625 C 347.296875 57.390625 344.546875 53.457031 341.40625 49.722656 L 345.726562 39.308594 C 346.710938 36.949219 346.121094 34.394531 344.15625 32.625 C 338.460938 27.515625 332.371094 22.996094 325.691406 19.261719 C 323.53125 18.082031 320.78125 18.277344 318.816406 19.851562 L 310.367188 27.121094 C 305.851562 25.15625 301.332031 23.78125 296.617188 22.601562 L 294.066406 11.597656 C 293.476562 9.238281 291.511719 7.273438 288.957031 7.078125 C 281.296875 6.09375 273.636719 6.09375 265.976562 7.078125 C 263.421875 7.273438 261.457031 9.238281 260.867188 11.597656 L 258.3125 22.601562 C 253.601562 23.78125 248.886719 25.15625 244.5625 27.121094 L 235.921875 19.851562 C 233.957031 18.277344 231.207031 17.886719 229.046875 19.261719 C 222.367188 22.996094 216.082031 27.515625 210.582031 32.625 C 208.8125 34.394531 208.222656 36.949219 209.007812 39.308594 L 213.332031 49.722656 C 210.1875 53.457031 207.242188 57.390625 204.882812 61.515625 L 193.492188 60.925781 C 190.9375 60.730469 188.582031 62.105469 187.597656 64.464844 C 184.457031 71.34375 182.097656 78.8125 180.527344 86.28125 C 179.9375 88.835938 181.117188 91.195312 183.277344 92.570312 L 192.902344 98.464844 C 192.507812 103.96875 192.507812 109.472656 193.097656 114.972656 L 183.277344 123.425781 C 176.203125 120.28125 168.742188 117.921875 161.277344 116.152344 L 157.152344 99.054688 C 156.5625 96.695312 154.597656 94.730469 152.042969 94.535156 C 141.4375 93.355469 130.632812 93.355469 120.023438 94.535156 C 117.472656 94.730469 115.507812 96.695312 114.917969 99.054688 L 110.792969 116.152344 C 103.132812 117.726562 95.863281 120.28125 88.792969 123.425781 L 75.433594 112.027344 C 73.46875 110.453125 70.71875 110.0625 68.558594 111.4375 C 59.328125 116.742188 50.488281 123.03125 42.828125 130.105469 C 41.058594 131.875 40.46875 134.429688 41.253906 136.789062 L 47.933594 152.90625 C 42.828125 158.800781 38.113281 165.089844 34.183594 171.773438 L 16.699219 170.398438 C 14.148438 170.199219 11.789062 171.574219 10.808594 173.933594 C 6.289062 183.566406 2.949219 193.785156 0.988281 204.199219 C 0.398438 206.757812 1.574219 209.113281 3.738281 210.488281 L 18.664062 219.726562 C 17.878906 227.390625 17.878906 235.253906 18.664062 242.917969 L 3.738281 252.15625 C 1.574219 253.53125 0.59375 255.890625 0.988281 258.445312 C 3.148438 268.859375 6.488281 279.082031 10.808594 288.710938 C 11.789062 291.070312 14.148438 292.25 16.699219 292.25 L 34.183594 290.871094 C 38.113281 297.554688 42.628906 303.84375 47.933594 309.738281 L 41.253906 325.855469 C 40.273438 328.214844 40.863281 330.769531 42.828125 332.539062 C 50.683594 339.808594 59.328125 346.097656 68.558594 351.210938 C 70.71875 352.386719 73.46875 352.191406 75.433594 350.621094 L 88.792969 339.21875 C 95.863281 342.363281 103.328125 344.722656 110.792969 346.492188 L 114.917969 363.589844 C 115.507812 365.949219 117.472656 367.914062 120.023438 368.109375 C 125.328125 368.699219 130.632812 369.09375 135.9375 369.09375 C 141.238281 369.09375 146.542969 368.699219 151.847656 368.109375 C 154.402344 367.914062 156.367188 365.949219 156.953125 363.589844 L 161.078125 346.492188 C 168.742188 344.917969 176.007812 342.363281 183.082031 339.21875 L 196.4375 350.621094 C 198.402344 352.191406 201.152344 352.585938 203.3125 351.210938 C 212.546875 345.902344 221.382812 339.613281 229.046875 332.539062 C 230.8125 330.769531 231.402344 328.214844 230.617188 325.855469 L 223.9375 309.738281 C 229.046875 303.84375 233.761719 297.554688 237.6875 290.871094 L 255.171875 292.25 C 257.726562 292.445312 260.082031 291.070312 261.0625 288.710938 C 265.582031 279.082031 268.921875 268.859375 270.886719 258.445312 C 271.476562 255.890625 270.296875 253.53125 268.136719 252.15625 L 253.207031 242.917969 C 253.992188 235.253906 253.992188 227.390625 253.207031 219.726562 L 268.136719 210.488281 C 270.296875 209.113281 271.277344 206.757812 270.886719 204.199219 C 270.886719 204.199219 270.886719 204.003906 270.886719 204.003906 C 273.046875 204.199219 275.207031 204.398438 277.367188 204.398438 C 281.101562 204.398438 285.027344 204.199219 288.761719 203.808594 C 291.316406 203.609375 293.28125 201.644531 293.867188 199.289062 L 296.421875 188.28125 C 301.136719 187.101562 305.851562 185.726562 310.171875 183.761719 L 318.621094 191.03125 C 320.582031 192.605469 323.332031 193 325.496094 191.621094 C 332.171875 187.886719 338.460938 183.367188 343.960938 178.257812 C 345.726562 176.488281 346.316406 173.933594 345.53125 171.574219 L 341.210938 161.160156 C 344.351562 157.425781 347.296875 153.496094 349.65625 149.367188 L 360.851562 150.152344 C 363.40625 150.351562 365.761719 148.972656 366.746094 146.617188 C 369.886719 139.738281 372.246094 132.269531 373.816406 124.800781 C 374.601562 122.640625 373.425781 120.082031 371.261719 118.707031 Z M 243.777344 211.472656 C 241.8125 212.652344 240.636719 215.011719 241.027344 217.367188 C 242.207031 226.605469 242.207031 236.039062 241.027344 245.277344 C 240.636719 247.636719 241.8125 249.992188 243.777344 251.171875 L 258.3125 260.015625 C 256.742188 266.894531 254.582031 273.382812 251.832031 279.867188 L 234.742188 278.492188 C 232.386719 278.292969 230.222656 279.472656 229.046875 281.636719 C 224.527344 289.890625 219.027344 297.359375 212.742188 304.238281 C 211.171875 306.007812 210.582031 308.363281 211.5625 310.722656 L 218.046875 326.445312 C 212.742188 330.964844 207.046875 335.09375 201.152344 338.828125 L 188.1875 327.820312 C 186.417969 326.25 183.867188 326.050781 181.707031 327.035156 C 173.257812 330.964844 164.417969 333.914062 155.1875 335.683594 C 152.828125 336.074219 151.0625 337.84375 150.472656 340.203125 L 146.542969 356.710938 C 139.667969 357.300781 132.597656 357.300781 125.722656 356.710938 L 121.792969 340.203125 C 121.203125 337.84375 119.4375 336.074219 117.078125 335.683594 C 107.847656 333.914062 99.007812 331.164062 90.558594 327.035156 C 88.398438 326.050781 85.84375 326.25 84.078125 327.820312 L 71.113281 338.828125 C 65.21875 335.289062 59.523438 331.164062 54.21875 326.445312 L 60.703125 310.722656 C 61.683594 308.5625 61.09375 306.007812 59.523438 304.238281 C 53.042969 297.554688 47.542969 289.890625 43.21875 281.636719 C 42.042969 279.472656 39.878906 278.292969 37.523438 278.492188 L 20.433594 279.867188 C 17.683594 273.382812 15.523438 266.699219 13.949219 260.015625 L 28.488281 251.171875 C 30.453125 249.992188 31.628906 247.636719 31.238281 245.277344 C 30.058594 236.039062 30.058594 226.605469 31.238281 217.367188 C 31.628906 215.011719 30.453125 212.652344 28.488281 211.472656 L 13.949219 202.628906 C 15.523438 195.75 17.683594 189.265625 20.433594 182.777344 L 37.523438 184.15625 C 39.878906 184.351562 42.042969 183.171875 43.21875 181.011719 C 47.738281 172.753906 53.238281 165.285156 59.523438 158.410156 C 61.09375 156.640625 61.683594 154.28125 60.703125 151.921875 L 54.21875 136.199219 C 59.523438 131.679688 65.21875 127.550781 71.113281 123.816406 L 84.078125 134.824219 C 85.847656 136.394531 88.398438 136.59375 90.558594 135.609375 C 99.007812 131.679688 107.847656 128.730469 117.078125 126.960938 C 119.4375 126.570312 121.203125 124.800781 121.792969 122.441406 L 125.722656 105.933594 C 132.597656 105.34375 139.667969 105.34375 146.542969 105.933594 L 150.472656 122.441406 C 151.0625 124.800781 152.828125 126.570312 155.1875 126.960938 C 164.417969 128.730469 173.257812 131.484375 181.707031 135.609375 C 183.867188 136.59375 186.417969 136.199219 188.1875 134.824219 L 201.152344 123.816406 C 207.046875 127.355469 212.742188 131.484375 218.046875 136.199219 L 211.5625 151.921875 C 210.582031 154.085938 211.171875 156.640625 212.742188 158.410156 C 219.222656 165.089844 224.722656 172.753906 229.046875 181.011719 C 230.222656 183.171875 232.386719 184.351562 234.742188 184.15625 L 251.832031 182.777344 C 254.582031 189.265625 256.742188 195.945312 258.3125 202.628906 Z M 349.460938 115.171875 C 349.066406 117.527344 350.246094 119.886719 352.210938 121.066406 L 361.441406 126.765625 C 360.460938 130.695312 359.28125 134.429688 357.710938 138.164062 L 347.101562 137.378906 C 344.746094 137.183594 342.585938 138.363281 341.40625 140.523438 C 338.460938 146.222656 334.53125 151.332031 330.207031 156.050781 C 328.636719 157.820312 328.046875 160.175781 329.03125 162.535156 L 333.15625 172.558594 C 330.207031 175.113281 326.871094 177.472656 323.53125 179.632812 L 315.28125 172.753906 C 313.511719 171.183594 310.957031 170.988281 308.796875 171.96875 C 303.101562 174.71875 296.816406 176.6875 290.53125 177.867188 C 288.171875 178.257812 286.402344 180.027344 285.816406 182.386719 L 283.261719 192.800781 C 278.152344 193.195312 272.851562 193 267.742188 192.410156 C 265.976562 186.316406 263.617188 180.222656 261.0625 174.523438 C 260.082031 172.164062 257.726562 170.789062 255.171875 170.988281 L 237.6875 172.363281 C 233.761719 165.679688 229.242188 159.390625 223.9375 153.496094 L 230.617188 137.378906 C 231.597656 135.019531 231.011719 132.464844 229.046875 130.695312 C 221.582031 123.816406 213.527344 117.921875 204.6875 112.8125 C 204.296875 107.503906 204.097656 102.003906 204.882812 96.695312 C 205.277344 94.339844 204.097656 91.980469 202.132812 90.800781 L 192.902344 85.101562 C 193.882812 81.171875 195.0625 77.4375 196.632812 73.703125 L 207.242188 74.488281 C 209.597656 74.683594 211.757812 73.503906 212.9375 71.34375 C 216.082031 65.644531 219.8125 60.535156 224.136719 55.816406 C 225.707031 54.046875 226.296875 51.691406 225.3125 49.332031 L 221.1875 39.308594 C 224.136719 36.753906 227.472656 34.394531 230.8125 32.234375 L 239.0625 39.113281 C 240.832031 40.683594 243.386719 40.878906 245.546875 39.898438 C 251.242188 37.144531 257.527344 35.179688 263.8125 34 C 266.171875 33.609375 267.941406 31.839844 268.527344 29.480469 L 271.082031 19.066406 C 275.011719 18.867188 278.941406 18.867188 283.066406 19.066406 L 285.617188 29.480469 C 286.207031 31.839844 287.976562 33.609375 290.332031 34 C 296.617188 35.179688 302.707031 37.144531 308.601562 39.898438 C 310.761719 40.878906 313.316406 40.683594 315.082031 39.113281 L 323.332031 32.234375 C 326.671875 34.394531 330.011719 36.753906 332.957031 39.308594 L 328.832031 49.332031 C 327.851562 51.492188 328.441406 54.046875 330.011719 55.816406 C 334.53125 60.535156 338.261719 65.644531 341.210938 71.34375 C 342.386719 73.503906 344.546875 74.683594 346.90625 74.488281 L 357.511719 73.703125 C 359.085938 77.4375 360.261719 81.171875 361.246094 85.101562 L 352.011719 90.800781 C 350.046875 91.980469 348.871094 94.339844 349.261719 96.695312 C 350.441406 102.394531 350.441406 108.882812 349.460938 115.171875 Z M 349.460938 115.171875 "/>
</g>
<path style=" stroke:none;fill-rule:nonzero;fill:rgb(96.469116%,96.859741%,98.81897%);fill-opacity:1;" d="M 277.367188 53.261719 C 248.492188 53.261719 225.117188 76.648438 225.117188 105.539062 C 225.117188 134.429688 248.492188 157.820312 277.367188 157.820312 C 306.242188 157.820312 329.621094 134.429688 329.621094 105.539062 C 329.621094 76.847656 306.242188 53.261719 277.367188 53.261719 Z M 277.367188 146.027344 C 255.171875 146.027344 237.097656 127.945312 237.097656 105.738281 C 237.097656 83.527344 255.171875 65.449219 277.367188 65.449219 C 299.566406 65.449219 317.636719 83.527344 317.636719 105.738281 C 317.636719 127.945312 299.566406 146.027344 277.367188 146.027344 Z M 277.367188 146.027344 "/>
</g>
</svg>
