<?xml version="1.0" encoding="UTF-8"?>
<svg xmlns="http://www.w3.org/2000/svg" xmlns:xlink="http://www.w3.org/1999/xlink" width="375pt" height="374.999991pt" viewBox="0 0 375 374.999991" version="1.2">
<g id="surface1">
<path style=" stroke:none;fill-rule:nonzero;fill:rgb(96.469116%,96.859741%,98.81897%);fill-opacity:1;" d="M 375.148438 372.597656 C 375.148438 376.234375 372.003906 377.847656 368.121094 377.847656 L 7.09375 377.847656 C 3.226562 377.847656 0.078125 376.234375 0.078125 372.597656 C 0.078125 368.957031 3.226562 367.359375 7.09375 367.359375 L 368.121094 367.359375 C 372.003906 367.359375 375.148438 368.957031 375.148438 372.597656 "/>
<path style=" stroke:none;fill-rule:nonzero;fill:rgb(96.469116%,96.859741%,98.81897%);fill-opacity:1;" d="M 182.078125 338.035156 C 182.078125 348.4375 173.648438 356.859375 163.25 356.859375 L 130.109375 356.859375 C 119.710938 356.859375 111.292969 348.4375 111.292969 338.035156 L 111.292969 197.335938 C 111.292969 186.933594 119.710938 178.511719 130.109375 178.511719 L 163.25 178.511719 C 173.648438 178.511719 182.078125 186.933594 182.078125 197.335938 L 182.078125 338.035156 "/>
<path style=" stroke:none;fill-rule:nonzero;fill:rgb(96.469116%,96.859741%,98.81897%);fill-opacity:1;" d="M 260.726562 338.035156 C 260.726562 348.4375 252.296875 356.859375 241.902344 356.859375 L 208.757812 356.859375 C 198.359375 356.859375 189.941406 348.4375 189.941406 338.035156 L 189.941406 118.648438 C 189.941406 108.25 198.359375 99.828125 208.757812 99.828125 L 241.902344 99.828125 C 252.296875 99.828125 260.726562 108.25 260.726562 118.648438 L 260.726562 338.035156 "/>
<path style=" stroke:none;fill-rule:nonzero;fill:rgb(96.469116%,96.859741%,98.81897%);fill-opacity:1;" d="M 98.179688 338.035156 C 98.179688 348.4375 89.761719 356.859375 79.367188 356.859375 L 46.210938 356.859375 C 35.816406 356.859375 27.398438 348.4375 27.398438 338.035156 L 27.398438 129.136719 C 27.398438 118.734375 35.816406 110.3125 46.210938 110.3125 L 79.367188 110.3125 C 89.761719 110.3125 98.179688 118.734375 98.179688 129.136719 L 98.179688 338.035156 "/>
<path style=" stroke:none;fill-rule:nonzero;fill:rgb(96.469116%,96.859741%,98.81897%);fill-opacity:1;" d="M 347.242188 333.042969 C 347.242188 345.363281 340.371094 356.859375 329.988281 356.859375 L 296.121094 356.859375 C 285.722656 356.859375 276.457031 345.363281 276.457031 333.042969 L 276.457031 22.789062 C 276.457031 10.457031 285.722656 0.152344 296.121094 0.152344 L 329.988281 0.152344 C 340.371094 0.152344 347.242188 10.457031 347.242188 22.789062 L 347.242188 333.042969 "/>
</g>
</svg>
