<?xml version="1.0" encoding="UTF-8"?>
<svg xmlns="http://www.w3.org/2000/svg" xmlns:xlink="http://www.w3.org/1999/xlink" width="375pt" height="374.999991pt" viewBox="0 0 375 374.999991" version="1.2">
<defs>
<clipPath id="clip1">
  <path d="M 0 68 L 161 68 L 161 316.3125 L 0 316.3125 Z M 0 68 "/>
</clipPath>
<clipPath id="clip2">
  <path d="M 213 69 L 375 69 L 375 316.3125 L 213 316.3125 Z M 213 69 "/>
</clipPath>
<clipPath id="clip3">
  <path d="M 0 68 L 161 68 L 161 316.3125 L 0 316.3125 Z M 0 68 "/>
</clipPath>
</defs>
<g id="surface1">
<g clip-path="url(#clip1)" clip-rule="nonzero">
<path style=" stroke:none;fill-rule:nonzero;fill:rgb(96.469116%,96.859741%,98.81897%);fill-opacity:1;" d="M 25.25 81.625 C 27.285156 93.371094 31.46875 116.390625 34.988281 135.574219 L 34.980469 135.566406 C 36.28125 166.3125 83.089844 192.207031 83.089844 192.207031 C 83.089844 192.207031 73.640625 184.777344 56.519531 170.222656 C 45.859375 161.160156 36.574219 141.859375 35.03125 135.730469 C 33.421875 125.730469 45.726562 122.273438 57.246094 135.023438 C 74.445312 154.082031 154.097656 209.570312 153.214844 234.0625 C 152.253906 261.246094 160.382812 316.136719 160.382812 316.136719 L 88.398438 316.136719 L 94.863281 251.53125 C 94.863281 251.53125 31.0625 204.929688 19.429688 191.34375 C 7.792969 177.746094 2.023438 94.234375 1.015625 81.625 C -0.0078125 69.003906 21.363281 59.285156 25.25 81.625 "/>
</g>
<g clip-path="url(#clip2)" clip-rule="nonzero">
<path style=" stroke:none;fill-rule:nonzero;fill:rgb(96.469116%,96.859741%,98.81897%);fill-opacity:1;" d="M 349.75 82.949219 C 347.710938 94.691406 343.53125 117.714844 340.011719 136.902344 L 340.019531 136.890625 C 338.71875 167.632812 291.90625 193.535156 291.90625 193.535156 C 291.90625 193.535156 301.363281 186.101562 318.480469 171.542969 C 329.140625 162.484375 338.425781 143.183594 339.972656 137.054688 C 341.578125 127.054688 329.273438 123.597656 317.753906 136.347656 C 300.550781 155.40625 220.898438 210.890625 221.78125 235.386719 C 222.742188 262.570312 213.390625 316.140625 213.390625 316.140625 L 284.160156 316.140625 L 280.132812 252.851562 C 280.132812 252.851562 343.9375 206.253906 355.574219 192.664062 C 367.207031 179.070312 372.976562 95.558594 373.988281 82.949219 C 375.003906 70.324219 353.628906 60.609375 349.75 82.949219 "/>
</g>
<g clip-path="url(#clip3)" clip-rule="nonzero">
<path style=" stroke:none;fill-rule:nonzero;fill:rgb(96.469116%,96.859741%,98.81897%);fill-opacity:1;" d="M 160.382812 316.136719 L 88.398438 316.136719 L 94.863281 251.53125 C 94.863281 251.53125 31.0625 204.929688 19.429688 191.34375 C 7.792969 177.746094 2.023438 94.234375 1.015625 81.625 C 0.988281 81.332031 0.976562 81.039062 0.976562 80.753906 C 0.976562 73.984375 7.296875 68.269531 13.566406 68.269531 C 18.578125 68.269531 23.566406 71.929688 25.25 81.625 C 27.285156 93.371094 31.46875 116.390625 34.988281 135.574219 L 34.980469 135.566406 C 36.28125 166.3125 83.089844 192.207031 83.089844 192.207031 C 83.089844 192.207031 73.640625 184.777344 56.519531 170.222656 C 45.859375 161.160156 36.574219 141.859375 35.03125 135.730469 C 34.9375 135.132812 34.890625 134.5625 34.890625 134.011719 C 34.886719 129.558594 37.957031 126.773438 42.417969 126.773438 C 46.597656 126.773438 52.003906 129.222656 57.246094 135.023438 C 74.351562 153.972656 153.207031 208.945312 153.222656 233.648438 C 153.222656 233.789062 153.222656 233.925781 153.214844 234.0625 C 153.164062 235.589844 153.136719 237.203125 153.136719 238.890625 C 153.140625 267.234375 160.382812 316.136719 160.382812 316.136719 "/>
</g>
</g>
</svg>
