<?xml version="1.0" encoding="UTF-8"?>
<svg xmlns="http://www.w3.org/2000/svg" xmlns:xlink="http://www.w3.org/1999/xlink" width="375pt" height="374.999991pt" viewBox="0 0 375 374.999991" version="1.2">
<defs>
<clipPath id="clip1">
  <path d="M 80 135 L 310 135 L 310 301.328125 L 80 301.328125 Z M 80 135 "/>
</clipPath>
<clipPath id="clip2">
  <path d="M 266.527344 73.359375 L 374.804688 73.359375 L 374.804688 192 L 266.527344 192 Z M 266.527344 73.359375 "/>
</clipPath>
</defs>
<g id="surface1">
<path style=" stroke:none;fill-rule:nonzero;fill:rgb(96.469116%,96.859741%,98.81897%);fill-opacity:1;" d="M 61.984375 128.996094 L 6.34375 128.996094 C 4.640625 128.996094 3.097656 129.683594 1.972656 130.789062 L 1.984375 130.800781 C 0.859375 131.917969 0.164062 133.464844 0.164062 135.15625 L 0.164062 259.199219 C 0.164062 260.902344 0.851562 262.449219 1.964844 263.5625 L 1.972656 263.554688 C 3.097656 264.675781 4.640625 265.371094 6.332031 265.371094 L 61.972656 265.371094 C 63.679688 265.371094 65.226562 264.683594 66.34375 263.578125 L 66.332031 263.566406 C 67.460938 262.441406 68.15625 260.902344 68.15625 259.210938 L 68.15625 135.167969 C 68.15625 133.464844 67.464844 131.917969 66.355469 130.804688 L 66.347656 130.8125 C 65.226562 129.691406 63.679688 128.996094 61.984375 128.996094 "/>
<path style=" stroke:none;fill-rule:nonzero;fill:rgb(96.469116%,96.859741%,98.81897%);fill-opacity:1;" d="M 14.816406 141.230469 L 53.496094 141.230469 C 57.035156 141.230469 60.25 142.671875 62.574219 144.996094 L 62.582031 145.011719 C 64.910156 147.339844 66.355469 150.546875 66.355469 154.066406 L 66.355469 240.292969 C 66.355469 243.828125 64.910156 247.035156 62.585938 249.363281 L 62.566406 249.367188 C 60.238281 251.695312 57.027344 253.136719 53.5 253.136719 L 14.824219 253.136719 C 11.285156 253.136719 8.070312 251.695312 5.746094 249.371094 L 5.742188 249.355469 C 3.410156 247.027344 1.964844 243.820312 1.964844 240.296875 L 1.964844 154.074219 C 1.964844 150.539062 3.410156 147.332031 5.734375 145.003906 L 5.753906 145 C 8.082031 142.671875 11.292969 141.230469 14.816406 141.230469 "/>
<path style=" stroke:none;fill-rule:evenodd;fill:rgb(96.469116%,96.859741%,98.81897%);fill-opacity:1;" d="M 251.113281 116.410156 C 180.230469 113.59375 171.851562 116.757812 150.105469 124.980469 C 145.386719 126.761719 140.066406 128.777344 133.46875 131.003906 C 131.171875 137.96875 116.089844 186.355469 138.390625 190.53125 L 138.53125 190.554688 L 138.53125 190.539062 L 138.738281 190.578125 C 146.886719 191.554688 153.097656 183.789062 159.878906 175.324219 C 176.15625 154.988281 194.925781 131.554688 249.390625 171.769531 C 252.820312 173.796875 287.589844 194.429688 306.320312 208.519531 C 308.347656 206.058594 310.253906 203.773438 312.003906 201.734375 C 313.050781 200.515625 314.097656 199.308594 315.148438 198.121094 L 252.585938 118.246094 L 252.582031 118.242188 L 251.113281 116.410156 "/>
<g clip-path="url(#clip1)" clip-rule="nonzero">
<path style=" stroke:none;fill-rule:evenodd;fill:rgb(96.469116%,96.859741%,98.81897%);fill-opacity:1;" d="M 242.292969 181.820312 C 197.171875 148.417969 182.34375 166.949219 169.476562 183.019531 C 160.394531 194.359375 152.070312 204.757812 137.066406 202.753906 C 136.832031 202.734375 136.601562 202.710938 136.363281 202.667969 L 136.367188 202.644531 C 106.609375 197.335938 114.316406 154.613281 119.363281 135.449219 C 110.644531 138.023438 100.109375 140.816406 87.027344 143.828125 L 80.476562 148.585938 L 80.476562 149.722656 L 81.15625 248.09375 C 99.371094 256.585938 182.480469 295.28125 196.167969 300.597656 C 200.125 302.136719 205.425781 301.089844 211.132812 298.8125 C 214.753906 297.367188 218.480469 295.429688 222.160156 293.296875 L 201.425781 281.734375 C 198.46875 280.0625 197.429688 276.3125 199.105469 273.363281 C 200.777344 270.410156 204.53125 269.375 207.488281 271.042969 L 236.613281 287.28125 C 237.09375 287.472656 237.550781 287.726562 237.972656 288.035156 L 245.269531 292.105469 C 248.59375 292.808594 262.351562 294.8125 261.160156 279.589844 L 207.550781 251.46875 C 204.542969 249.894531 203.371094 246.175781 204.949219 243.171875 C 206.527344 240.160156 210.246094 239 213.261719 240.574219 L 267.808594 269.191406 C 270.289062 270.492188 274.257812 270.710938 277.941406 269.71875 C 279.839844 269.207031 281.574219 268.359375 282.839844 267.167969 C 283.851562 266.210938 284.558594 264.964844 284.722656 263.417969 C 285.003906 260.832031 284.058594 257.367188 281.289062 252.863281 L 222.953125 219.222656 C 220.003906 217.519531 218.992188 213.753906 220.695312 210.808594 C 222.398438 207.863281 226.171875 206.855469 229.121094 208.554688 L 287.796875 242.390625 C 294.230469 243.386719 299.105469 242.914062 302.644531 241.515625 C 305.261719 240.476562 307.066406 238.929688 308.148438 237.148438 C 309.203125 235.429688 309.625 233.417969 309.496094 231.429688 C 309.347656 229.234375 308.558594 227.101562 307.214844 225.402344 C 299.839844 216.039062 248.390625 185.460938 243.234375 182.40625 C 242.90625 182.25 242.589844 182.054688 242.289062 181.832031 L 242.292969 181.820312 "/>
</g>
<g clip-path="url(#clip2)" clip-rule="nonzero">
<path style=" stroke:none;fill-rule:nonzero;fill:rgb(96.469116%,96.859741%,98.81897%);fill-opacity:1;" d="M 271.734375 98.925781 L 302.777344 75.882812 C 305.617188 73.777344 309.054688 73.015625 312.316406 73.496094 L 312.328125 73.503906 C 315.585938 73.984375 318.660156 75.695312 320.765625 78.519531 L 372.273438 147.722656 C 374.382812 150.558594 375.140625 153.996094 374.664062 157.246094 L 374.648438 157.261719 C 374.171875 160.515625 372.457031 163.589844 369.628906 165.691406 L 338.589844 188.738281 C 335.746094 190.84375 332.308594 191.601562 329.054688 191.125 L 329.035156 191.113281 C 325.777344 190.636719 322.703125 188.921875 320.59375 186.097656 L 269.089844 116.898438 C 266.980469 114.058594 266.222656 110.625 266.699219 107.371094 L 266.714844 107.355469 C 267.195312 104.101562 268.90625 101.03125 271.734375 98.925781 "/>
</g>
</g>
</svg>
