<?xml version="1.0" encoding="UTF-8"?>
<svg xmlns="http://www.w3.org/2000/svg" xmlns:xlink="http://www.w3.org/1999/xlink" width="375pt" height="374.999991pt" viewBox="0 0 375 374.999991" version="1.2">
<g id="surface1">
<path style=" stroke:none;fill-rule:nonzero;fill:rgb(96.469116%,96.859741%,98.81897%);fill-opacity:1;" d="M 277.875 187.78125 C 277.875 189.234375 277.839844 190.6875 277.765625 192.140625 C 277.695312 193.59375 277.585938 195.046875 277.441406 196.492188 C 277.296875 197.941406 277.113281 199.382812 276.898438 200.820312 C 276.679688 202.261719 276.429688 203.691406 276.140625 205.121094 C 275.851562 206.546875 275.527344 207.964844 275.167969 209.375 C 274.808594 210.785156 274.417969 212.1875 273.988281 213.582031 C 273.558594 214.972656 273.09375 216.351562 272.597656 217.722656 C 272.101562 219.09375 271.566406 220.449219 271.003906 221.792969 C 270.4375 223.136719 269.839844 224.464844 269.207031 225.78125 C 268.574219 227.09375 267.910156 228.394531 267.214844 229.675781 C 266.519531 230.960938 265.789062 232.222656 265.03125 233.472656 C 264.269531 234.71875 263.480469 235.949219 262.660156 237.15625 C 261.839844 238.367188 260.988281 239.554688 260.109375 240.722656 C 259.226562 241.890625 258.320312 243.039062 257.382812 244.164062 C 256.445312 245.289062 255.480469 246.386719 254.488281 247.464844 C 253.496094 248.542969 252.476562 249.597656 251.433594 250.625 C 250.386719 251.652344 249.316406 252.65625 248.222656 253.632812 C 247.128906 254.609375 246.007812 255.558594 244.867188 256.484375 C 243.726562 257.40625 242.5625 258.300781 241.375 259.167969 C 240.1875 260.03125 238.980469 260.871094 237.75 261.679688 C 236.523438 262.484375 235.273438 263.265625 234.007812 264.011719 C 232.742188 264.757812 231.457031 265.476562 230.152344 266.160156 C 228.847656 266.847656 227.53125 267.5 226.195312 268.125 C 224.859375 268.746094 223.507812 269.335938 222.144531 269.890625 C 220.777344 270.449219 219.398438 270.972656 218.007812 271.460938 C 216.617188 271.949219 215.214844 272.40625 213.800781 272.828125 C 212.386719 273.25 210.964844 273.640625 209.53125 273.992188 C 208.097656 274.347656 206.65625 274.664062 205.207031 274.949219 C 203.757812 275.230469 202.300781 275.480469 200.839844 275.695312 C 199.378906 275.90625 197.914062 276.085938 196.441406 276.226562 C 194.972656 276.371094 193.5 276.476562 192.023438 276.550781 C 190.546875 276.621094 189.070312 276.65625 187.59375 276.65625 C 186.117188 276.65625 184.640625 276.621094 183.164062 276.550781 C 181.6875 276.476562 180.214844 276.371094 178.746094 276.226562 C 177.273438 276.085938 175.808594 275.90625 174.347656 275.695312 C 172.886719 275.480469 171.429688 275.230469 169.980469 274.949219 C 168.53125 274.664062 167.089844 274.347656 165.65625 273.992188 C 164.222656 273.640625 162.800781 273.25 161.386719 272.828125 C 159.972656 272.40625 158.570312 271.949219 157.179688 271.460938 C 155.789062 270.972656 154.410156 270.449219 153.042969 269.890625 C 151.679688 269.335938 150.328125 268.746094 148.992188 268.125 C 147.65625 267.5 146.339844 266.847656 145.035156 266.160156 C 143.730469 265.476562 142.445312 264.757812 141.179688 264.011719 C 139.914062 263.265625 138.664062 262.484375 137.4375 261.679688 C 136.207031 260.871094 135 260.03125 133.8125 259.167969 C 132.625 258.300781 131.460938 257.40625 130.320312 256.484375 C 129.179688 255.558594 128.058594 254.609375 126.964844 253.632812 C 125.871094 252.65625 124.800781 251.652344 123.753906 250.625 C 122.710938 249.597656 121.691406 248.542969 120.699219 247.464844 C 119.707031 246.386719 118.742188 245.289062 117.804688 244.164062 C 116.867188 243.039062 115.960938 241.890625 115.078125 240.722656 C 114.199219 239.554688 113.347656 238.367188 112.527344 237.15625 C 111.707031 235.949219 110.917969 234.71875 110.15625 233.472656 C 109.398438 232.222656 108.667969 230.960938 107.972656 229.675781 C 107.277344 228.394531 106.613281 227.09375 105.980469 225.78125 C 105.347656 224.464844 104.75 223.136719 104.183594 221.792969 C 103.621094 220.449219 103.085938 219.09375 102.589844 217.722656 C 102.09375 216.351562 101.628906 214.972656 101.199219 213.582031 C 100.769531 212.1875 100.378906 210.785156 100.019531 209.375 C 99.660156 207.964844 99.335938 206.546875 99.046875 205.121094 C 98.757812 203.691406 98.507812 202.261719 98.289062 200.820312 C 98.074219 199.382812 97.890625 197.941406 97.746094 196.492188 C 97.601562 195.046875 97.492188 193.59375 97.421875 192.140625 C 97.347656 190.6875 97.3125 189.234375 97.3125 187.78125 C 97.3125 186.328125 97.347656 184.875 97.421875 183.421875 C 97.492188 181.96875 97.601562 180.515625 97.746094 179.070312 C 97.890625 177.621094 98.074219 176.179688 98.289062 174.742188 C 98.507812 173.300781 98.757812 171.867188 99.046875 170.441406 C 99.335938 169.015625 99.660156 167.597656 100.019531 166.1875 C 100.378906 164.777344 100.769531 163.375 101.199219 161.980469 C 101.628906 160.589844 102.09375 159.210938 102.589844 157.839844 C 103.085938 156.46875 103.621094 155.113281 104.183594 153.769531 C 104.75 152.425781 105.347656 151.097656 105.980469 149.78125 C 106.613281 148.46875 107.277344 147.167969 107.972656 145.886719 C 108.667969 144.601562 109.398438 143.339844 110.15625 142.089844 C 110.917969 140.84375 111.707031 139.613281 112.527344 138.40625 C 113.347656 137.195312 114.199219 136.007812 115.078125 134.839844 C 115.960938 133.671875 116.867188 132.523438 117.804688 131.398438 C 118.742188 130.273438 119.707031 129.175781 120.699219 128.097656 C 121.691406 127.019531 122.710938 125.964844 123.753906 124.9375 C 124.800781 123.910156 125.871094 122.90625 126.964844 121.929688 C 128.058594 120.953125 129.179688 120.003906 130.320312 119.078125 C 131.460938 118.15625 132.625 117.261719 133.8125 116.394531 C 135 115.53125 136.207031 114.691406 137.4375 113.882812 C 138.664062 113.078125 139.914062 112.296875 141.179688 111.550781 C 142.445312 110.804688 143.730469 110.085938 145.035156 109.402344 C 146.339844 108.714844 147.65625 108.0625 148.992188 107.4375 C 150.328125 106.816406 151.679688 106.226562 153.042969 105.671875 C 154.410156 105.113281 155.789062 104.589844 157.179688 104.101562 C 158.570312 103.613281 159.972656 103.15625 161.386719 102.734375 C 162.800781 102.3125 164.222656 101.921875 165.65625 101.570312 C 167.089844 101.214844 168.53125 100.898438 169.980469 100.613281 C 171.429688 100.332031 172.886719 100.082031 174.347656 99.867188 C 175.808594 99.65625 177.273438 99.476562 178.746094 99.335938 C 180.214844 99.191406 181.6875 99.085938 183.164062 99.011719 C 184.640625 98.941406 186.117188 98.90625 187.59375 98.90625 C 189.070312 98.90625 190.546875 98.941406 192.023438 99.011719 C 193.5 99.085938 194.972656 99.191406 196.441406 99.335938 C 197.914062 99.476562 199.378906 99.65625 200.839844 99.867188 C 202.300781 100.082031 203.757812 100.332031 205.207031 100.613281 C 206.65625 100.898438 208.097656 101.214844 209.53125 101.570312 C 210.964844 101.921875 212.386719 102.3125 213.800781 102.734375 C 215.214844 103.15625 216.617188 103.613281 218.007812 104.101562 C 219.398438 104.589844 220.777344 105.113281 222.144531 105.671875 C 223.507812 106.226562 224.859375 106.816406 226.195312 107.4375 C 227.53125 108.0625 228.847656 108.714844 230.152344 109.402344 C 231.453125 110.085938 232.742188 110.804688 234.007812 111.550781 C 235.273438 112.296875 236.523438 113.078125 237.75 113.882812 C 238.980469 114.691406 240.1875 115.53125 241.375 116.394531 C 242.5625 117.261719 243.726562 118.15625 244.867188 119.078125 C 246.007812 120.003906 247.128906 120.953125 248.222656 121.929688 C 249.316406 122.90625 250.386719 123.910156 251.433594 124.9375 C 252.476562 125.964844 253.496094 127.019531 254.488281 128.097656 C 255.480469 129.175781 256.445312 130.273438 257.382812 131.398438 C 258.320312 132.523438 259.226562 133.671875 260.109375 134.839844 C 260.988281 136.007812 261.839844 137.195312 262.660156 138.40625 C 263.480469 139.613281 264.269531 140.84375 265.03125 142.089844 C 265.789062 143.339844 266.519531 144.601562 267.214844 145.886719 C 267.910156 147.167969 268.574219 148.46875 269.207031 149.78125 C 269.839844 151.097656 270.4375 152.425781 271.003906 153.769531 C 271.566406 155.113281 272.101562 156.46875 272.597656 157.839844 C 273.09375 159.210938 273.558594 160.589844 273.988281 161.980469 C 274.417969 163.375 274.808594 164.777344 275.167969 166.1875 C 275.527344 167.597656 275.851562 169.015625 276.140625 170.441406 C 276.429688 171.867188 276.679688 173.300781 276.898438 174.742188 C 277.113281 176.179688 277.296875 177.621094 277.441406 179.070312 C 277.585938 180.515625 277.695312 181.96875 277.765625 183.421875 C 277.839844 184.875 277.875 186.328125 277.875 187.78125 Z M 277.875 187.78125 "/>
<path style=" stroke:none;fill-rule:nonzero;fill:rgb(96.469116%,96.859741%,98.81897%);fill-opacity:1;" d="M 187.59375 76.875 C 184.96875 76.875 182.90625 74.8125 182.90625 72.1875 L 182.90625 21.375 C 182.90625 18.75 184.96875 16.6875 187.59375 16.6875 C 190.21875 16.6875 192.28125 18.75 192.28125 21.375 L 192.28125 72.1875 C 192.28125 74.71875 190.125 76.875 187.59375 76.875 Z M 192.28125 354.1875 L 192.28125 303.375 C 192.28125 300.75 190.21875 298.6875 187.59375 298.6875 C 184.96875 298.6875 182.90625 300.75 182.90625 303.375 L 182.90625 354.1875 C 182.90625 356.8125 184.96875 358.875 187.59375 358.875 C 190.21875 358.875 192.28125 356.8125 192.28125 354.1875 Z M 74.71875 187.78125 C 74.71875 185.15625 72.65625 183.09375 70.03125 183.09375 L 18.46875 183.09375 C 15.84375 183.09375 13.78125 185.15625 13.78125 187.78125 C 13.78125 190.40625 15.84375 192.46875 18.46875 192.46875 L 70.03125 192.46875 C 72.65625 192.46875 74.71875 190.40625 74.71875 187.78125 Z M 361.40625 187.78125 C 361.40625 185.15625 359.34375 183.09375 356.71875 183.09375 L 305.15625 183.09375 C 302.53125 183.09375 300.46875 185.15625 300.46875 187.78125 C 300.46875 190.40625 302.53125 192.46875 305.15625 192.46875 L 356.71875 192.46875 C 359.34375 192.46875 361.40625 190.40625 361.40625 187.78125 Z M 107.8125 109.3125 C 109.59375 107.4375 109.59375 104.53125 107.71875 102.65625 L 71.25 66.75 C 69.375 64.96875 66.46875 64.96875 64.59375 66.84375 C 62.8125 68.71875 62.8125 71.625 64.6875 73.5 L 101.15625 109.40625 C 102.09375 110.34375 103.21875 110.71875 104.4375 110.71875 C 105.65625 110.71875 106.875 110.25 107.8125 109.3125 Z M 310.5 308.8125 C 312.28125 306.9375 312.28125 304.03125 310.40625 302.15625 L 273.9375 266.25 C 272.0625 264.46875 269.15625 264.46875 267.28125 266.34375 C 265.5 268.21875 265.5 271.125 267.375 273 L 303.84375 308.90625 C 304.78125 309.84375 305.90625 310.21875 307.125 310.21875 C 308.34375 310.21875 309.5625 309.75 310.5 308.8125 Z M 71.25 308.8125 L 107.71875 272.90625 C 109.59375 271.125 109.59375 268.125 107.8125 266.25 C 106.03125 264.375 103.03125 264.375 101.15625 266.15625 L 64.6875 302.15625 C 62.8125 303.9375 62.8125 306.9375 64.59375 308.8125 C 65.53125 309.75 66.75 310.21875 67.96875 310.21875 C 69.1875 310.21875 70.3125 309.75 71.25 308.8125 Z M 273.9375 109.40625 L 310.40625 73.5 C 312.28125 71.71875 312.28125 68.71875 310.5 66.84375 C 308.71875 64.96875 305.71875 64.96875 303.84375 66.75 L 267.375 102.65625 C 265.5 104.4375 265.5 107.4375 267.28125 109.3125 C 268.21875 110.25 269.4375 110.71875 270.65625 110.71875 C 271.875 110.71875 273.09375 110.25 273.9375 109.40625 Z M 144.28125 85.03125 C 146.625 84 147.75 81.28125 146.8125 78.9375 L 137.625 57.09375 C 136.59375 54.75 133.875 53.625 131.4375 54.5625 C 129.09375 55.59375 127.96875 58.3125 128.90625 60.65625 L 138.09375 82.5 C 138.84375 84.28125 140.625 85.40625 142.40625 85.40625 C 143.15625 85.40625 143.71875 85.3125 144.28125 85.03125 Z M 243.65625 321.09375 C 246 320.0625 247.125 317.34375 246.1875 315 L 237 293.15625 C 235.96875 290.8125 233.25 289.6875 230.8125 290.625 C 228.46875 291.65625 227.34375 294.375 228.28125 296.71875 L 237.46875 318.5625 C 238.21875 320.34375 240 321.46875 241.78125 321.46875 C 242.4375 321.46875 243.09375 321.28125 243.65625 321.09375 Z M 58.3125 245.53125 L 80.53125 236.4375 C 82.96875 235.5 84.09375 232.6875 83.0625 230.34375 C 82.125 227.90625 79.3125 226.78125 76.96875 227.8125 L 54.75 236.90625 C 52.3125 237.84375 51.1875 240.65625 52.21875 243 C 52.96875 244.78125 54.75 245.90625 56.53125 245.90625 C 57.09375 245.90625 57.75 245.8125 58.3125 245.53125 Z M 298.125 147.84375 L 320.34375 138.75 C 322.78125 137.8125 323.90625 135 322.875 132.65625 C 321.9375 130.21875 319.125 129.09375 316.78125 130.125 L 294.5625 139.21875 C 292.125 140.15625 291 142.96875 292.03125 145.3125 C 292.78125 147.09375 294.5625 148.21875 296.34375 148.21875 C 297 148.125 297.5625 148.03125 298.125 147.84375 Z M 237 82.59375 L 246.1875 60.75 C 247.21875 58.40625 246.09375 55.59375 243.65625 54.65625 C 241.21875 53.625 238.5 54.75 237.46875 57.1875 L 228.28125 79.03125 C 227.25 81.375 228.375 84.1875 230.8125 85.125 C 231.375 85.40625 232.03125 85.5 232.59375 85.5 C 234.46875 85.40625 236.25 84.375 237 82.59375 Z M 137.625 318.5625 L 146.8125 296.71875 C 147.84375 294.375 146.71875 291.5625 144.28125 290.625 C 141.84375 289.59375 139.125 290.71875 138.09375 293.15625 L 128.90625 315 C 127.875 317.34375 129 320.15625 131.4375 321.09375 C 132 321.375 132.65625 321.46875 133.21875 321.46875 C 135.09375 321.46875 136.875 320.34375 137.625 318.5625 Z M 83.15625 145.21875 C 84.09375 142.78125 82.96875 140.0625 80.625 139.125 L 58.40625 130.03125 C 55.96875 129.09375 53.25 130.21875 52.3125 132.5625 C 51.375 135 52.5 137.71875 54.84375 138.65625 L 77.0625 147.75 C 77.625 148.03125 78.28125 148.125 78.84375 148.125 C 80.625 148.125 82.40625 147 83.15625 145.21875 Z M 322.96875 243 C 323.90625 240.5625 322.78125 237.84375 320.4375 236.90625 L 298.125 227.8125 C 295.6875 226.875 292.96875 228 292.03125 230.34375 C 291.09375 232.78125 292.21875 235.5 294.5625 236.4375 L 316.78125 245.53125 C 317.34375 245.8125 318 245.90625 318.5625 245.90625 C 320.4375 245.90625 322.21875 244.78125 322.96875 243 Z M 322.96875 243 "/>
</g>
</svg>
